<svg width="24" height="24" viewBox="0 0 24 24" fill="none" xmlns="http://www.w3.org/2000/svg">
<path d="M6 21C5.25 21 4.50833 20.8167 3.775 20.45C3.04167 20.0833 2.45 19.6 2 19C2.43333 19 2.875 18.829 3.325 18.487C3.775 18.145 4 17.6493 4 17C4 16.1667 4.29167 15.4583 4.875 14.875C5.45833 14.2917 6.16667 14 7 14C7.83333 14 8.54167 14.2917 9.125 14.875C9.70833 15.4583 10 16.1667 10 17C10 18.1 9.60833 19.0417 8.825 19.825C8.04167 20.6083 7.1 21 6 21ZM6 19C6.55 19 7.02067 18.8043 7.412 18.413C7.80333 18.0217 7.99933 17.5507 8 17C8 16.7167 7.904 16.4793 7.712 16.288C7.52 16.0967 7.28267 16.0007 7 16C6.71733 15.9993 6.48 16.0953 6.288 16.288C6.096 16.4807 6 16.718 6 17C6 17.3833 5.95433 17.7333 5.863 18.05C5.77167 18.3667 5.65067 18.6667 5.5 18.95C5.58333 18.9833 5.66667 19 5.75 19H6ZM11.75 15L9 12.25L17.95 3.3C18.1333 3.11666 18.3627 3.02066 18.638 3.012C18.9133 3.00333 19.1507 3.09933 19.35 3.3L20.7 4.65C20.9 4.85 21 5.08333 21 5.35C21 5.61666 20.9 5.85 20.7 6.05L11.75 15Z" fill="white"/>
</svg>
